<svg width="133" height="40" viewBox="0 0 133 40" fill="none" xmlns="http://www.w3.org/2000/svg">
<path d="M37.195 35.434C40.569 31.6724 42.6237 26.7074 42.6237 21.2598C42.6237 9.51816 33.0823 0 21.3119 0C9.54146 0 0 9.51816 0 21.2598C0 26.7042 2.05151 31.6724 5.42876 35.434H37.1982H37.195Z" fill="#F9AF16"/>
<path d="M130.513 17.8167C129.139 17.8167 128.026 18.9269 128.026 20.2976C128.026 21.6684 129.139 22.7785 130.513 22.7785C131.887 22.7785 133 21.6684 133 20.2976C133 18.9269 131.887 17.8167 130.513 17.8167ZM130.513 22.3087C129.4 22.3087 128.497 21.4078 128.497 20.2976C128.497 19.1875 129.4 18.2865 130.513 18.2865C131.626 18.2865 132.529 19.1875 132.529 20.2976C132.529 21.4078 131.626 22.3087 130.513 22.3087Z" fill="#1D1D1B"/>
<path d="M129.548 19.0202H130.661C130.974 19.0202 131.219 19.1135 131.381 19.268C131.513 19.4031 131.587 19.5865 131.587 19.8053V19.8118C131.587 20.2204 131.342 20.465 130.99 20.5647L131.664 21.5075H131.148L130.535 20.6387H129.987V21.5075H129.548V19.017V19.0202ZM130.629 20.2526C130.942 20.2526 131.142 20.0885 131.142 19.8375V19.8311C131.142 19.564 130.948 19.4192 130.626 19.4192H129.987V20.2558H130.629V20.2526Z" fill="#1D1D1B"/>
<path d="M84.825 9.83672V8.92285C84.8346 8.60751 84.9959 8.31472 85.2604 8.1474L87.2797 6.85385V9.83672H89.4538L88.8215 11.8092H87.2765V16.4524C87.2765 16.9898 87.5474 17.2762 88.2119 17.2762H89.3925L88.4054 19.6251H87.17C85.8926 19.6251 84.8346 18.7821 84.8346 17.0252V11.806L84.825 9.88174V9.8335V9.83672Z" fill="#1D1D1B"/>
<path d="M91.4504 10.6443C92.1858 10.107 93.3567 9.60501 94.9921 9.60501C97.2565 9.60501 98.8564 10.5382 98.8564 13.4792V19.5382L96.6275 19.5479V19.0202C95.8921 19.4321 95.047 19.667 94.1276 19.667C92.2245 19.667 90.7149 18.6823 90.7117 16.5682C90.7117 15.2586 91.46 14.0391 92.6955 13.595C93.8373 13.1832 95.2405 13.2507 96.463 13.6787V13.6433C96.463 12.279 95.8534 11.8864 94.7373 11.8864C93.7857 11.8864 93.0309 12.1567 92.4181 12.5686L91.4471 10.6508L91.4504 10.6443ZM96.4662 17.3502V15.2361C95.9824 15.1106 95.4598 15.0398 94.976 15.0398C93.8986 15.0398 92.9987 15.4163 92.9987 16.4202C92.9987 17.3534 93.8083 17.6945 94.705 17.6945C95.2792 17.6945 95.9082 17.5497 96.4662 17.3534V17.3502Z" fill="#1D1D1B"/>
<path d="M76.8157 9.43768V10.7119C77.4996 9.97829 78.3963 9.59857 79.5285 9.59857C81.451 9.59857 82.7638 10.6926 82.7638 13.3827V19.5318H80.3188V13.669C80.3188 12.3594 79.6898 11.8768 78.6995 11.8768C78.035 11.8768 77.3867 12.1084 76.9738 13.0609V19.535H74.5481V10.6186C74.5481 10.3708 74.7062 10.1521 74.9416 10.0716L76.8157 9.43768Z" fill="#1D1D1B"/>
<path d="M70.2225 19.535V18.5504C69.5387 19.2841 68.6419 19.6637 67.5097 19.6637C65.5872 19.6637 64.2744 18.5697 64.2744 15.8797V9.73052H66.7194V15.5933C66.7194 16.9029 67.3485 17.3856 68.3387 17.3856C69.0032 17.3856 69.6516 17.1539 70.0644 16.2014V9.72729H72.4901V19.5318H70.2257L70.2225 19.535Z" fill="#1D1D1B"/>
<path d="M58.0811 7.02436C60.7874 7.02436 62.5938 8.37586 62.5938 11.0048C62.5938 13.6337 60.7874 14.9658 58.0811 14.9658H56.2779V18.042C56.2779 18.367 56.0715 18.6598 55.7618 18.7628L53.6426 19.4836V7.02118H58.0811V7.02436ZM56.2618 12.678H58.1359C59.31 12.678 60.1036 12.1567 60.1036 11.0208C60.1036 9.88496 59.31 9.39907 58.1359 9.39907H56.2618V12.6748V12.678Z" fill="#1D1D1B"/>
<path d="M66.6999 22.1801V26.4468C67.3483 25.8193 68.2095 25.4975 69.2514 25.4975C71.1739 25.4975 72.4867 26.5916 72.4867 29.2816V35.4308H70.0417V29.568C70.0417 28.2584 69.4127 27.7757 68.4224 27.7757C67.7579 27.7757 67.1096 28.0074 66.6967 28.9599V35.434H64.271V23.628C64.271 23.2548 64.5097 22.9266 64.8613 22.8075L66.6967 22.1833L66.6999 22.1801Z" fill="#1D1D1B"/>
<path d="M82.7764 30.5913C82.7764 33.9088 81.0314 35.6656 78.5702 35.6656C76.109 35.6656 74.3833 33.9088 74.3833 30.5913C74.3833 27.2738 76.1284 25.4975 78.5702 25.4975C81.012 25.4975 82.7764 27.2545 82.7764 30.5913ZM76.6832 30.6073C76.6832 32.4736 77.438 33.439 78.5702 33.439C79.7024 33.439 80.4766 32.4704 80.4766 30.6073C80.4766 28.7442 79.7024 27.7371 78.5702 27.7371C77.438 27.7371 76.6832 28.7056 76.6832 30.6073Z" fill="#1D1D1B"/>
<path d="M97.0371 25.3334V26.6656C97.6468 25.9834 98.5112 25.5008 99.6241 25.5008C102.23 25.5008 103.217 28.1007 103.217 30.5945C103.217 33.0882 102.23 35.6689 99.6241 35.6689C98.5983 35.6689 97.7919 35.2731 97.1984 34.681V38.3396L94.7727 39.1634V26.6141C94.7727 26.3084 94.9662 26.0381 95.2566 25.9384L97.0371 25.3334ZM97.1984 28.799V32.3675C97.5952 32.9949 98.1693 33.4615 99.0144 33.4615C100.434 33.4615 100.921 32.1519 100.921 30.5913C100.921 29.0307 100.437 27.721 99.0144 27.721C98.1693 27.721 97.5952 28.1683 97.1984 28.7957" fill="#1D1D1B"/>
<path d="M86.9087 25.3334V26.6656C87.5183 25.9834 88.3828 25.5008 89.4957 25.5008C92.102 25.5008 93.089 28.1007 93.089 30.5945C93.089 33.0882 92.102 35.6689 89.4957 35.6689C88.4699 35.6689 87.6635 35.2731 87.07 34.681V38.3396L84.6443 39.1634V26.6141C84.6443 26.3084 84.8378 26.0381 85.1281 25.9384L86.9087 25.3334ZM87.07 28.799V32.3675C87.4667 32.9949 88.0409 33.4615 88.886 33.4615C90.3053 33.4615 90.7924 32.1519 90.7924 30.5913C90.7924 29.0307 90.3085 27.721 88.886 27.721C88.0409 27.721 87.4667 28.1683 87.07 28.7957" fill="#1D1D1B"/>
<path d="M107.724 22.5758C107.724 23.4189 107.13 24.0109 106.304 24.0109C105.479 24.0109 104.905 23.4189 104.905 22.5758C104.905 21.7328 105.479 21.1407 106.304 21.1407C107.13 21.1407 107.724 21.7328 107.724 22.5758ZM107.517 25.3302V35.4308H105.092V26.6463C105.092 26.3535 105.279 26.0896 105.559 25.9963L107.521 25.3302H107.517Z" fill="#1D1D1B"/>
<path d="M111.843 25.3366V26.6109C112.527 25.8772 113.423 25.4975 114.556 25.4975C116.478 25.4975 117.791 26.5916 117.791 29.2816V35.4308H115.346V29.568C115.346 28.2584 114.717 27.7757 113.727 27.7757C113.062 27.7757 112.414 28.0074 112.001 28.9598V35.434H109.575V26.5401C109.575 26.2794 109.74 26.051 109.988 25.9673L111.84 25.3399L111.843 25.3366Z" fill="#1D1D1B"/>
<path d="M125.881 25.9062C125.726 25.9577 125.623 26.1025 125.623 26.2634V26.5562C125.013 25.9287 124.149 25.4975 123.052 25.4975C120.446 25.4975 119.439 27.9173 119.439 30.1955C119.439 32.4736 120.446 34.9127 123.052 34.9127C124.149 34.9127 125.01 34.4815 125.623 33.8734V34.1437C125.623 35.3857 125.026 36.1065 123.616 36.6181L122.452 37.075C122.017 37.2456 121.733 37.6671 121.736 38.1337L121.755 40L124.562 38.8995C126.974 38.0018 128.052 36.4476 128.052 33.5291V25.1725L125.881 25.9094V25.9062ZM125.623 31.6113C125.21 32.2935 124.597 32.7954 123.645 32.7954C122.226 32.7954 121.739 31.6113 121.739 30.2309C121.739 28.8505 122.223 27.6663 123.662 27.6663C124.597 27.6663 125.207 28.1876 125.62 28.8505V31.6113H125.623Z" fill="#1D1D1B"/>
<path d="M53.7489 31.7143C54.6521 32.6507 55.8069 33.2813 57.4488 33.2813C59.0906 33.2813 59.939 32.67 59.939 31.6789C59.939 30.8873 59.397 30.617 58.7293 30.4014C57.7197 30.0764 56.2907 29.8609 55.0102 29.3396C53.6747 28.799 52.6812 28.0428 52.6812 26.421C52.6812 24.3134 54.3425 22.8365 57.3552 22.8365C59.8648 22.8365 61.3808 23.8629 62.1582 24.8186L60.3164 26.421C59.5583 25.6649 58.5842 25.179 57.2294 25.179C56.0004 25.179 55.2069 25.5748 55.2069 26.3149C55.2069 26.9262 55.7295 27.1805 56.2166 27.3606C57.2455 27.7403 58.7616 27.9012 60.026 28.3871C61.3808 28.9084 62.4808 29.8094 62.4808 31.6628C62.4808 34.237 60.3325 35.5692 57.281 35.5692C54.6457 35.5692 52.8038 34.5781 51.7942 33.3167L53.7425 31.7143H53.7489Z" fill="#1D1D1B"/>
</svg>
